<svg width="338" height="292" viewBox="0 0 338 292" fill="none" xmlns="http://www.w3.org/2000/svg">
<path d="M49.3944 263.348C12.1065 266.729 -8.98311 252.03 -13.8745 219.252C-18.7658 186.473 -25.2222 158.479 -33.2435 135.267C-41.2648 112.056 -44.6143 87.1574 -43.2921 60.5714C-41.9699 33.9853 -34.285 6.01813 -20.2373 -23.3302C-6.18963 -52.6785 19.1938 -71.33 55.9128 -79.2847C92.6319 -87.2393 128.719 -85.9195 164.174 -75.3251C199.63 -64.7308 224.28 -44.6181 238.124 -14.9871C251.969 14.6438 271.138 38.98 295.633 58.0213C320.127 77.0627 333.755 101.14 336.516 130.254C339.276 159.368 331.034 185.595 311.787 208.934C292.54 232.274 270.068 254.136 244.371 274.519C218.674 294.902 189.076 297.291 155.576 281.685C122.076 266.08 86.6822 259.968 49.3944 263.348Z" fill="#CBE5F2"/>
</svg>
