<svg width="441" height="190" viewBox="0 0 441 190" fill="none" xmlns="http://www.w3.org/2000/svg">
<path d="M514.767 148.605C545.318 171.997 541.575 200.014 503.537 232.654C465.499 265.295 434.618 294.785 410.893 321.126C387.169 347.466 358.017 372.001 323.438 394.73C288.859 417.459 248.049 436.912 201.008 453.09C153.967 469.268 112.477 467.898 76.5382 448.98C40.5991 430.062 16.843 403.336 5.26984 368.802C-6.30329 334.268 1.78335 298.912 29.5298 262.734C57.2762 226.556 74.5694 191.32 81.4096 157.028C88.2497 122.735 109.12 91.6542 144.022 63.7841C178.923 35.9141 217.924 18.405 261.023 11.257C304.123 4.10888 347.624 0.560228 391.526 0.611021C435.429 0.6618 459.307 19.4922 463.16 57.1023C467.014 94.7124 484.216 125.213 514.767 148.605Z" fill="#1A3986"/>
</svg>
