<svg width="32" height="32" viewBox="0 0 32 32" fill="none" xmlns="http://www.w3.org/2000/svg">
<path d="M15.6445 22.6666C14.9529 22.6666 14.2897 22.3857 13.8008 21.8856C13.3118 21.3855 13.0371 20.7072 13.0371 20C13.0371 18.52 14.1974 17.3333 15.6445 17.3333C16.336 17.3333 16.9992 17.6143 17.4882 18.1144C17.9772 18.6145 18.2519 19.2927 18.2519 20C18.2519 20.7072 17.9772 21.3855 17.4882 21.8856C16.9992 22.3857 16.336 22.6666 15.6445 22.6666ZM23.4667 26.6666V13.3333H7.82225V26.6666H23.4667ZM23.4667 10.6666C24.1582 10.6666 24.8214 10.9476 25.3104 11.4477C25.7994 11.9478 26.0741 12.6261 26.0741 13.3333V26.6666C26.0741 27.3739 25.7994 28.0522 25.3104 28.5523C24.8214 29.0524 24.1582 29.3333 23.4667 29.3333H7.82225C7.13072 29.3333 6.46752 29.0524 5.97854 28.5523C5.48955 28.0522 5.21484 27.3739 5.21484 26.6666V13.3333C5.21484 11.8533 6.37514 10.6666 7.82225 10.6666H9.12595V7.99998C9.12595 6.23187 9.81273 4.53618 11.0352 3.28593C12.2576 2.03569 13.9157 1.33331 15.6445 1.33331C16.5005 1.33331 17.3481 1.50575 18.139 1.84078C18.9299 2.17581 19.6485 2.66688 20.2538 3.28593C20.8591 3.90499 21.3392 4.63992 21.6668 5.44876C21.9944 6.25759 22.163 7.1245 22.163 7.99998V10.6666H23.4667ZM15.6445 3.99998C14.6072 3.99998 13.6124 4.42141 12.8789 5.17155C12.1454 5.9217 11.7334 6.93911 11.7334 7.99998V10.6666H19.5556V7.99998C19.5556 6.93911 19.1435 5.9217 18.41 5.17155C17.6766 4.42141 16.6818 3.99998 15.6445 3.99998Z" fill="#1A3986"/>
</svg>
