<svg width="24" height="24" viewBox="0 0 24 24" fill="none" xmlns="http://www.w3.org/2000/svg">
<path d="M9.34303 18.782L7.41103 18.264L8.19803 15.325C7.02009 14.8903 5.92528 14.2572 4.96103 13.453L2.80803 15.607L1.39403 14.193L3.54703 12.039C2.33122 10.5827 1.51424 8.83571 1.17603 6.96899L3.14403 6.60999C3.52148 8.68379 4.6147 10.5594 6.23315 11.9099C7.85161 13.2603 9.89265 14 12.0005 14C14.1084 14 16.1494 13.2603 17.7679 11.9099C19.3863 10.5594 20.4796 8.68379 20.857 6.60999L22.825 6.96799C22.4867 8.83516 21.6693 10.5825 20.453 12.039L22.607 14.193L21.193 15.607L19.039 13.453C18.0748 14.2572 16.98 14.8903 15.802 15.325L16.59 18.265L14.658 18.782L13.87 15.842C12.6325 16.0555 11.3676 16.0555 10.13 15.842L9.34303 18.782Z" fill="#1A3986"/>
</svg>
