<svg width="33" height="32" viewBox="0 0 33 32" fill="none" xmlns="http://www.w3.org/2000/svg">
<path d="M5.5 29.3333C5.5 26.5043 6.65893 23.7912 8.72183 21.7908C10.7847 19.7905 13.5826 18.6666 16.5 18.6666C19.4174 18.6666 22.2153 19.7905 24.2782 21.7908C26.3411 23.7912 27.5 26.5043 27.5 29.3333H24.75C24.75 27.2116 23.8808 25.1768 22.3336 23.6765C20.7865 22.1762 18.688 21.3333 16.5 21.3333C14.312 21.3333 12.2135 22.1762 10.6664 23.6765C9.11919 25.1768 8.25 27.2116 8.25 29.3333H5.5ZM16.5 17.3333C11.9419 17.3333 8.25 13.7533 8.25 9.33331C8.25 4.91331 11.9419 1.33331 16.5 1.33331C21.0581 1.33331 24.75 4.91331 24.75 9.33331C24.75 13.7533 21.0581 17.3333 16.5 17.3333ZM16.5 14.6666C19.5387 14.6666 22 12.28 22 9.33331C22 6.38665 19.5387 3.99998 16.5 3.99998C13.4612 3.99998 11 6.38665 11 9.33331C11 12.28 13.4612 14.6666 16.5 14.6666Z" fill="#1A3986"/>
</svg>
