<svg width="1440" height="895" viewBox="0 0 1440 895" fill="none" xmlns="http://www.w3.org/2000/svg">
<path d="M-180.031 675.306L-71.9296 663.496C36.1716 651.686 252.374 628.067 446.331 565.192C640.288 502.317 812 400.187 973.365 279.799C1134.73 159.41 1285.75 20.7638 1361.26 -48.5595L1436.77 -117.883" stroke="#1A3986" stroke-width="8"/>
<path d="M0.000354964 993L67.2324 909.07C134.464 825.14 268.929 657.28 416.843 513.156C564.758 369.032 726.123 248.643 912.838 172.988C1099.55 97.3323 1311.62 66.4095 1417.65 50.9481L1523.68 35.4868" stroke="#1A3986" stroke-width="8"/>
<path d="M-49.6637 905.36L42.4002 865.25C134.464 825.14 318.592 744.92 499.098 658.309C679.605 571.699 856.49 478.698 1020.44 362.874C1184.39 247.05 1335.41 108.404 1410.92 39.0803L1486.43 -30.243" stroke="#1A3986" stroke-width="8"/>
</svg>
